<?xml version="1.0" encoding="utf-8"?>
<svg version="1.1" id="Layer_1"
xmlns="http://www.w3.org/2000/svg"
xmlns:xlink="http://www.w3.org/1999/xlink"
width="550px" height="400px"
xml:space="preserve">
<g id="ShapeID_6032" transform="matrix(1, 0, 0, 1, 0, 0)" >
 <clipPath  id="PathID13291_ClipPathURL" clip-rule="nonzero">
<path d="M0 12.5C-3.45 12.5 -6.4 11.3 -8.85 8.8C-11.25 6.4 -12.5 3.45 -12.5 0C-12.5 -3.45 -11.3 -6.4 -8.85 -8.9C-6.45 -11.3 -3.5 -12.5 0 -12.5C3.45 -12.5 6.4 -11.3 8.8 -8.9C11.25 -6.45 12.5 -3.5 12.5 0C12.5 3.4 11.3 6.35 8.8 8.8C6.4 11.25 3.5 12.5 0 12.5M-5.3 5.3C-3.85 6.8 -2.1 7.5 0 7.5C2.1 7.5 3.85 6.75 5.3 5.3C6.8 3.8 7.5 2.05 7.5 0C7.5 -2.1 6.75 -3.9 5.3 -5.35C3.8 -6.8 2.05 -7.5 0 -7.5C-2.1 -7.5 -3.9 -6.75 -5.3 -5.35C-6.8 -3.85 -7.5 -2.1 -7.5 0C-7.5 2.1 -6.75 3.85 -5.3 5.3"/>
</clipPath>
<path 
style="clip-path:url(#PathID13291_ClipPathURL);fill:#FF0000;fill-opacity:1" d="M0 12.5C-3.45 12.5 -6.4 11.3 -8.85 8.8C-11.25 6.4 -12.5 3.45 -12.5 0C-12.5 -3.45 -11.3 -6.4 -8.85 -8.9C-6.45 -11.3 -3.5 -12.5 0 -12.5C3.45 -12.5 6.4 -11.3 8.8 -8.9C11.25 -6.45 12.5 -3.5 12.5 0C12.5 3.4 11.3 6.35 8.8 8.8C6.4 11.25 3.5 12.5 0 12.5" />
</g>
</svg>
