<?xml version="1.0" encoding="utf-8"?>
<svg version="1.1" id="Layer_1"
xmlns="http://www.w3.org/2000/svg"
xmlns:xlink="http://www.w3.org/1999/xlink"
width="550px" height="400px"
xml:space="preserve">
<g id="ShapeID_6059" transform="matrix(1, 0, 0, 1, 0, 0)" >
<path 
style="fill:#FFFFFF;fill-opacity:0.513725" d="M-6.55 13L-6.55 8L-6.4 8C-4.2 8 -2.35 7.25 -0.75 5.65C0.8 4.1 1.6 2.2 1.6 0C1.6 -2.2 0.85 -4.05 -0.75 -5.65C-2.3 -7.2 -4.2 -8 -6.4 -8L-6.55 -8L-6.55 -13L-6.4 -13C-2.8 -13 0.25 -11.75 2.8 -9.2C5.3 -6.7 6.6 -3.6 6.6 0C6.6 3.6 5.35 6.65 2.8 9.2C0.3 11.7 -2.8 13 -6.4 13L-6.55 13" />
</g>
</svg>
