<?xml version="1.0" encoding="utf-8"?>
<svg version="1.1" id="Layer_1"
xmlns="http://www.w3.org/2000/svg"
xmlns:xlink="http://www.w3.org/1999/xlink"
width="27px" height="26px"
xml:space="preserve">
<g id="ShapeID_15" transform="matrix(1, 0, 0, 1, 13.2, 13)" >
 <clipPath  id="PathID39_ClipPathURL" clip-rule="nonzero">
<path d="M0 13L-0.15 13C-3.75 13 -6.8 11.75 -9.35 9.2C-11.9 6.7 -13.2 3.6 -13.2 0C-13.2 -3.6 -11.95 -6.65 -9.35 -9.2C-6.85 -11.7 -3.75 -13 -0.15 -13L0 -13L0.15 -13C3.75 -13 6.8 -11.75 9.4 -9.2C11.9 -6.7 13.2 -3.6 13.2 0C13.2 3.6 11.95 6.65 9.4 9.2C6.85 11.7 3.75 13 0.15 13L0 13M-0.15 8L0 8L0.15 8C2.35 8 4.25 7.25 5.85 5.65C7.35 4.1 8.15 2.2 8.2 0C8.2 -2.2 7.4 -4.05 5.85 -5.65C4.3 -7.2 2.4 -8 0.15 -8L0 -8L-0.15 -8C-2.35 -8 -4.25 -7.25 -5.8 -5.65C-7.35 -4.1 -8.15 -2.2 -8.15 0C-8.15 2.2 -7.4 4.05 -5.8 5.65C-4.3 7.2 -2.4 8 -0.15 8"/>
</clipPath>
<path 
style="clip-path:url(#PathID39_ClipPathURL);fill:#FFFFFF;fill-opacity:0.282353" d="M0 13L-0.15 13C-3.75 13 -6.8 11.75 -9.35 9.2C-11.9 6.7 -13.2 3.6 -13.2 0C-13.2 -3.6 -11.95 -6.65 -9.35 -9.2C-6.85 -11.7 -3.75 -13 -0.15 -13L0 -13L0.15 -13C3.75 -13 6.8 -11.75 9.4 -9.2C11.9 -6.7 13.2 -3.6 13.2 0C13.2 3.6 11.95 6.65 9.4 9.2C6.85 11.7 3.75 13 0.15 13L0 13" />
</g>
</svg>
