<?xml version="1.0" encoding="utf-8"?>
<svg version="1.1" id="Layer_1"
xmlns="http://www.w3.org/2000/svg"
xmlns:xlink="http://www.w3.org/1999/xlink"
width="550px" height="400px"
xml:space="preserve">
<g id="ShapeID_6041" transform="matrix(1, 0, 0, 1, 0, 0)" >
<path 
style="fill:#FFFFFF;fill-opacity:1" d="M11 0L6 0L6 -5L11 -5L11 0" />
<path 
style="fill:#FFFFFF;fill-opacity:1" d="M5 0L0 0L0 -5L5 -5L5 0" />
<path 
style="fill:#FFFFFF;fill-opacity:1" d="M23 0L18 0L18 -5L23 -5L23 0" />
<path 
style="fill:#FFFFFF;fill-opacity:1" d="M17 0L12 0L12 -5L17 -5L17 0" />
<path 
style="fill:#FFFFFF;fill-opacity:1" d="M29 0L24 0L24 -5L29 -5L29 0" />
<linearGradient
id="LinearGradID_24" gradientUnits="userSpaceOnUse" gradientTransform="matrix(0, -0.00270081, 0.0360107, 0, -0.5, 3.55)" spreadMethod ="pad" x1="-819.2" y1="0" x2="819.2" y2="0" >
<stop  offset="0" style="stop-color:#FFFFFF;stop-opacity:0" />
<stop  offset="1" style="stop-color:#FFFFFF;stop-opacity:0.101961" />
</linearGradient>
<path 
style="fill:url(#LinearGradID_24)" d="M29 6.1L24 6.1L24 1.1L29 1.1L29 6.1" />
<linearGradient
id="LinearGradID_25" gradientUnits="userSpaceOnUse" gradientTransform="matrix(0, -0.00270081, 0.0360107, 0, -0.5, 3.55)" spreadMethod ="pad" x1="-819.2" y1="0" x2="819.2" y2="0" >
<stop  offset="0" style="stop-color:#FFFFFF;stop-opacity:0" />
<stop  offset="1" style="stop-color:#FFFFFF;stop-opacity:0.101961" />
</linearGradient>
<path 
style="fill:url(#LinearGradID_25)" d="M18 6.1L18 1.1L23 1.1L23 6.1L18 6.1" />
<linearGradient
id="LinearGradID_26" gradientUnits="userSpaceOnUse" gradientTransform="matrix(0, -0.00270081, 0.0360107, 0, -0.5, 3.55)" spreadMethod ="pad" x1="-819.2" y1="0" x2="819.2" y2="0" >
<stop  offset="0" style="stop-color:#FFFFFF;stop-opacity:0" />
<stop  offset="1" style="stop-color:#FFFFFF;stop-opacity:0.101961" />
</linearGradient>
<path 
style="fill:url(#LinearGradID_26)" d="M12 1.1L17 1.1L17 6.1L12 6.1L12 1.1" />
<linearGradient
id="LinearGradID_27" gradientUnits="userSpaceOnUse" gradientTransform="matrix(0, -0.00270081, 0.0360107, 0, -0.5, 3.55)" spreadMethod ="pad" x1="-819.2" y1="0" x2="819.2" y2="0" >
<stop  offset="0" style="stop-color:#FFFFFF;stop-opacity:0" />
<stop  offset="1" style="stop-color:#FFFFFF;stop-opacity:0.101961" />
</linearGradient>
<path 
style="fill:url(#LinearGradID_27)" d="M6 6.1L6 1.1L11 1.1L11 6.1L6 6.1" />
<linearGradient
id="LinearGradID_28" gradientUnits="userSpaceOnUse" gradientTransform="matrix(0, -0.00270081, 0.0360107, 0, -0.5, 3.55)" spreadMethod ="pad" x1="-819.2" y1="0" x2="819.2" y2="0" >
<stop  offset="0" style="stop-color:#FFFFFF;stop-opacity:0" />
<stop  offset="1" style="stop-color:#FFFFFF;stop-opacity:0.101961" />
</linearGradient>
<path 
style="fill:url(#LinearGradID_28)" d="M0 1.1L5 1.1L5 6.1L0 6.1L0 1.1" />
<path 
style="fill:#FFFFFF;fill-opacity:1" d="M-7 0L-12 0L-12 -5L-7 -5L-7 0" />
<path 
style="fill:#FFFFFF;fill-opacity:1" d="M-19 0L-24 0L-24 -5L-19 -5L-19 0" />
<path 
style="fill:#FFFFFF;fill-opacity:1" d="M-25 0L-30 0L-30 -5L-25 -5L-25 0" />
<path 
style="fill:#FFFFFF;fill-opacity:1" d="M-13 0L-18 0L-18 -5L-13 -5L-13 0" />
<path 
style="fill:#FFFFFF;fill-opacity:1" d="M-1 0L-6 0L-6 -5L-1 -5L-1 0" />
<linearGradient
id="LinearGradID_29" gradientUnits="userSpaceOnUse" gradientTransform="matrix(0, -0.00270081, 0.0360107, 0, -0.5, 3.55)" spreadMethod ="pad" x1="-819.2" y1="0" x2="819.2" y2="0" >
<stop  offset="0" style="stop-color:#FFFFFF;stop-opacity:0" />
<stop  offset="1" style="stop-color:#FFFFFF;stop-opacity:0.101961" />
</linearGradient>
<path 
style="fill:url(#LinearGradID_29)" d="M-1 6.1L-6 6.1L-6 1.1L-1 1.1L-1 6.1" />
<linearGradient
id="LinearGradID_30" gradientUnits="userSpaceOnUse" gradientTransform="matrix(0, -0.00270081, 0.0360107, 0, -0.5, 3.55)" spreadMethod ="pad" x1="-819.2" y1="0" x2="819.2" y2="0" >
<stop  offset="0" style="stop-color:#FFFFFF;stop-opacity:0" />
<stop  offset="1" style="stop-color:#FFFFFF;stop-opacity:0.101961" />
</linearGradient>
<path 
style="fill:url(#LinearGradID_30)" d="M-12 6.1L-12 1.1L-7 1.1L-7 6.1L-12 6.1" />
<linearGradient
id="LinearGradID_31" gradientUnits="userSpaceOnUse" gradientTransform="matrix(0, -0.00270081, 0.0360107, 0, -0.5, 3.55)" spreadMethod ="pad" x1="-819.2" y1="0" x2="819.2" y2="0" >
<stop  offset="0" style="stop-color:#FFFFFF;stop-opacity:0" />
<stop  offset="1" style="stop-color:#FFFFFF;stop-opacity:0.101961" />
</linearGradient>
<path 
style="fill:url(#LinearGradID_31)" d="M-13 1.1L-13 6.1L-18 6.1L-18 1.1L-13 1.1" />
<linearGradient
id="LinearGradID_32" gradientUnits="userSpaceOnUse" gradientTransform="matrix(0, -0.00270081, 0.0360107, 0, -0.5, 3.55)" spreadMethod ="pad" x1="-819.2" y1="0" x2="819.2" y2="0" >
<stop  offset="0" style="stop-color:#FFFFFF;stop-opacity:0" />
<stop  offset="1" style="stop-color:#FFFFFF;stop-opacity:0.101961" />
</linearGradient>
<path 
style="fill:url(#LinearGradID_32)" d="M-24 6.1L-24 1.1L-19 1.1L-19 6.1L-24 6.1" />
<linearGradient
id="LinearGradID_33" gradientUnits="userSpaceOnUse" gradientTransform="matrix(0, -0.00270081, 0.0360107, 0, -0.5, 3.55)" spreadMethod ="pad" x1="-819.2" y1="0" x2="819.2" y2="0" >
<stop  offset="0" style="stop-color:#FFFFFF;stop-opacity:0" />
<stop  offset="1" style="stop-color:#FFFFFF;stop-opacity:0.101961" />
</linearGradient>
<path 
style="fill:url(#LinearGradID_33)" d="M-30 6.1L-30 1.1L-25 1.1L-25 6.1L-30 6.1" />
</g>
</svg>
