<?xml version="1.0" encoding="utf-8"?>
<svg version="1.1" id="Layer_1"
xmlns="http://www.w3.org/2000/svg"
xmlns:xlink="http://www.w3.org/1999/xlink"
width="550px" height="400px"
xml:space="preserve">
<g id="ShapeID_6038" transform="matrix(1, 0, 0, 1, 0, 0)" >
 <clipPath  id="PathID13300_ClipPathURL" clip-rule="nonzero">
<path d="M-4.5 6.95L-8.35 10.8L-10.5 8.65L-5.9 4.05L-11.85 6.5L-13 3.7L-7.7 1.5L-13.5 1.5L-13.5 -1.5L-7.35 -1.5L-13 -3.85L-11.85 -6.65L-6.55 -4.45L-10.45 -8.35L-8.3 -10.5L-4.25 -6.45L-6.55 -11.95L-3.75 -13.1L-1.5 -7.65L-1.5 -13.5L1.5 -13.5L1.5 -7.55L3.8 -13.1L6.6 -11.95L4.15 -6.05L8.6 -10.5L10.75 -8.35L7 -4.6L11.95 -6.65L13.1 -3.85L7.4 -1.5L13.5 -1.5L13.5 1.5L7.8 1.5L13.1 3.7L11.95 6.5L6.4 4.2L10.8 8.65L8.65 10.8L4.4 6.5L6.6 11.85L3.8 13L1.5 7.45L1.5 13.5L-1.5 13.5L-1.5 7.55L-3.75 13L-6.55 11.85L-4.5 6.95M-4.4 0.9C-4.3 1.8 -3.85 2.65 -3.1 3.4C-2.2 4.3 -1.05 4.8 0.25 4.8C1.55 4.8 2.65 4.35 3.6 3.4C4.5 2.5 5 1.35 5 0.05C5 -1.25 4.55 -2.35 3.6 -3.3C2.7 -4.2 1.55 -4.7 0.25 -4.7C-1.05 -4.7 -2.15 -4.25 -3.1 -3.3L-3.95 -2.1L-4 -2.1L-4 -2L-4.5 -0.85L-4.5 0.75L-4.4 0.9"/>
</clipPath>
<path 
style="clip-path:url(#PathID13300_ClipPathURL);fill:#FF0000;fill-opacity:1" d="M-4.5 6.95L-8.35 10.8L-10.5 8.65L-5.9 4.05L-11.85 6.5L-13 3.7L-7.7 1.5L-13.5 1.5L-13.5 -1.5L-7.35 -1.5L-13 -3.85L-11.85 -6.65L-6.55 -4.45L-10.45 -8.35L-8.3 -10.5L-4.25 -6.45L-6.55 -11.95L-3.75 -13.1L-1.5 -7.65L-1.5 -13.5L1.5 -13.5L1.5 -7.55L3.8 -13.1L6.6 -11.95L4.15 -6.05L8.6 -10.5L10.75 -8.35L7 -4.6L11.95 -6.65L13.1 -3.85L7.4 -1.5L13.5 -1.5L13.5 1.5L7.8 1.5L13.1 3.7L11.95 6.5L6.4 4.2L10.8 8.65L8.65 10.8L4.4 6.5L6.6 11.85L3.8 13L1.5 7.45L1.5 13.5L-1.5 13.5L-1.5 7.55L-3.75 13L-6.55 11.85L-4.5 6.95" />
</g>
</svg>
